<?xml version="1.0" encoding="UTF-8"?>
<svg id="Layer_1" data-name="Layer 1" xmlns="http://www.w3.org/2000/svg" viewBox="0 0 5974.24 1089.06">
  <defs>
    <style>
      .cls-1 {
        fill: #f8f8f8;
      }
    </style>
  </defs>
  <g>
    <path class="cls-1" d="m1815.73,397.73h-91.94c-44.03,0-79.72,35.69-79.72,79.72v519.31c0,44.03-35.69,79.72-79.72,79.72h-91.94c-44.03,0-79.72-35.69-79.72-79.72V477.46c0-44.03-35.69-79.72-79.72-79.72h-91.94c-44.03,0-79.72-35.69-79.72-79.72v-41.67c0-44.03,35.69-79.72,79.72-79.72h594.73c44.03,0,79.72,35.69,79.72,79.72v41.67c0,44.03-35.69,79.72-79.72,79.72Z"/>
    <path class="cls-1" d="m2033.52,196.62h100.93c34.61,0,62.66,28.05,62.66,62.66v121.45c0,39.43,36,69.18,74.68,61.49,22.92-4.55,48.3-6.78,76.15-6.78,175.97,0,251.39,90.5,251.39,301.67v276.72c0,34.61-28.05,62.66-62.66,62.66h-100.93c-34.61,0-62.66-28.05-62.66-62.66v-276.72c0-96.79-26.4-138.26-87.99-138.26s-87.99,41.48-87.99,138.26v276.72c0,34.61-28.05,62.66-62.66,62.66h-100.93c-34.61,0-62.66-28.05-62.66-62.66V259.28c0-34.61,28.05-62.66,62.66-62.66Z"/>
    <path class="cls-1" d="m3014.13,950.79c45.78,0,74.2-13.58,89.93-44.26,9.79-19.09,29.37-31.15,50.83-31.15h96.81c41.96,0,69.72,43.85,51.49,81.64-44.2,91.6-135.31,132.04-289.06,132.04-237.57,0-339.38-98.04-339.38-326.81s101.81-326.81,339.38-326.81,339.38,98.04,339.38,326.81v5.8c0,31.51-25.54,57.05-57.05,57.05h-318.93c-49.25,0-75.68,58.5-42.61,95,18.88,20.84,45.07,30.7,79.22,30.7Zm-36-251.39h80.4c47.43,0,74.49-54.77,45.1-92-18.23-23.09-47.5-33.7-89.5-33.7-35,0-61.31,10.36-79.96,32.29-31.28,36.76-4.31,93.41,43.96,93.41Z"/>
    <path class="cls-1" d="m4067.55,397.73h-95.74c-42.98,0-77.83,34.84-77.83,77.83v523.1c0,42.98-34.84,77.83-77.83,77.83h-95.74c-42.98,0-77.83-34.84-77.83-77.83V475.56c0-42.98-34.84-77.83-77.83-77.83h-95.74c-42.98,0-77.83-34.84-77.83-77.83v-45.46c0-42.98,34.84-77.83,77.83-77.83h598.52c42.98,0,77.83,34.84,77.83,77.83v45.46c0,42.98-34.84,77.83-77.83,77.83Z"/>
    <path class="cls-1" d="m4410.59,764.39v280.43c0,18.18-14.74,32.92-32.92,32.92h-160.41c-18.18,0-32.92-14.74-32.92-32.92V482.19c0-18.18,14.74-32.92,32.92-32.92h123.95c11.81,0,22.72,6.33,28.58,16.59h0c10,17.5,33.14,21.86,49.03,9.46,33.81-26.39,73.51-39.87,116.21-39.87h67.64c18.18,0,32.92,14.74,32.92,32.92v122.71c0,18.18-14.74,32.92-32.92,32.92h-67.64c-96.53,0-125.54,25.01-125.7,137.37,0,.57.23,1.12.63,1.53h0c.4.4.63.95.63,1.51Z"/>
    <path class="cls-1" d="m4893.26,1089.06c-167.18,0-238.82-60.33-238.82-201.11,0-149.58,94.27-213.68,314.24-213.68h62.85c13.88,0,25.14-11.25,25.14-25.14h0c0-61.59-25.14-87.99-82.96-87.99-48.43,0-72.9,16.59-78.94,54.49-1.93,12.1-12.52,20.92-24.78,20.92h-164.12c-14.82,0-26.44-12.75-25.03-27.5,11.56-121.17,103.55-173.61,300.42-173.61,211.17,0,301.67,71.65,301.67,238.82v377.09c0,13.88-11.25,25.14-25.14,25.14h-136.2c-9.05,0-17.4-4.86-21.86-12.73l-4.11-7.24c-7.3-12.85-24.01-16.61-36.19-8.24-40.24,27.66-94.9,40.77-166.16,40.77Zm-10.68-213.05c.4.4.62.94.62,1.5.28,47.07,22.95,61.96,75.41,61.96,65.1,0,95.29-28.68,99.25-94.73.03-.53.05-1.06.05-1.59v-16.8s0,0,0,0c0-13.88-11.25-25.14-25.14-25.14h-56.56c-64.99,2.5-93.94,21.15-94.27,73.26,0,.57.23,1.13.63,1.54h0Z"/>
    <ellipse class="cls-1" cx="5509.16" cy="310.01" rx="125.7" ry="113.13"/>
    <rect class="cls-1" x="5396.04" y="448.01" width="226.25" height="628.48" rx="76.71" ry="76.71"/>
    <path class="cls-1" d="m5831.79,196.62h58.63c46.29,0,83.81,37.52,83.81,83.81v712.25c0,46.29-37.52,83.81-83.81,83.81h-58.63c-46.29,0-83.81-37.52-83.81-83.81V280.43c0-46.29,37.52-83.81,83.81-83.81Z"/>
  </g>
  <path class="cls-1" d="m1141.28,734.13v163.59c0,92.56-75.04,167.6-167.61,167.6h-28.31v-.42c-.67.27-1.4.42-2.16.42h-294.2c-125.01,0-226.35-126.73-226.35-283.05,0-78.16-25.34-148.93-66.3-200.15-40.96-51.23-97.54-82.91-160.05-82.91-.76,0-1.49-.15-2.16-.42h-26.53C75.04,498.79,0,423.75,0,331.19v-163.59C0,75.04,75.04,0,167.61,0h28.31v.02c.13-.02.25-.02.38-.02h294.21c125,0,226.34,126.72,226.34,283.05,0,78.16,25.34,148.93,66.3,200.15,40.96,51.23,97.54,82.91,160.05,82.91.76,0,1.49.15,2.16.42h28.31c92.57,0,167.61,75.04,167.61,167.6Z"/>
</svg>