<?xml version="1.0" encoding="UTF-8"?>
<svg id="Flat" xmlns="http://www.w3.org/2000/svg" viewBox="0 0 800 800">
  <defs>
    <style>
      .cls-1 {
        fill: #fff;
        stroke-width: 0px;
      }
    </style>
  </defs>
  <path class="cls-1" d="M713.04,0h-156.52c-28.8.03-52.14,23.37-52.17,52.17v695.65c.03,28.8,23.37,52.14,52.17,52.17h156.52c28.8-.03,52.14-23.37,52.17-52.17V52.17c-.03-28.8-23.37-52.14-52.17-52.17ZM730.43,747.83c-.01,9.6-7.79,17.38-17.39,17.39h-156.52c-9.6-.01-17.38-7.79-17.39-17.39V52.17c.01-9.6,7.79-17.38,17.39-17.39h156.52c9.6.01,17.38,7.79,17.39,17.39v695.65ZM243.48,0H86.96c-28.8.03-52.14,23.37-52.17,52.17v695.65c.03,28.8,23.37,52.14,52.17,52.17h156.52c28.8-.03,52.14-23.37,52.17-52.17V52.17c-.03-28.8-23.37-52.14-52.17-52.17ZM260.87,747.83c-.01,9.6-7.79,17.38-17.39,17.39H86.96c-9.6-.01-17.38-7.79-17.39-17.39V52.17c.01-9.6,7.79-17.38,17.39-17.39h156.52c9.6.01,17.38,7.79,17.39,17.39v695.65Z"/>
</svg>