<?xml version="1.0" encoding="UTF-8"?>
<svg id="Flat" xmlns="http://www.w3.org/2000/svg" viewBox="0 0 800 800">
  <defs>
    <style>
      .cls-1 {
        fill: #fff;
        stroke-width: 0px;
      }
    </style>
  </defs>
  <path class="cls-1" d="M745.45,800H54.55c-30.11-.03-54.51-24.43-54.55-54.55V54.55C.03,24.44,24.44.03,54.55,0h690.91c30.11.03,54.51,24.44,54.55,54.55v690.91c-.03,30.11-24.43,54.51-54.55,54.55ZM54.55,40c-8.03,0-14.54,6.52-14.55,14.55v690.91c0,8.03,6.52,14.54,14.55,14.55h690.91c8.03,0,14.54-6.52,14.55-14.55V54.55c0-8.03-6.52-14.54-14.55-14.55H54.55Z"/>
</svg>