<?xml version="1.0" encoding="UTF-8"?>
<svg id="Layer_2" data-name="Layer 2" xmlns="http://www.w3.org/2000/svg" viewBox="0 0 74.1 74.1">
  <defs>
    <style>
      .cls-1 {
        fill: none;
        opacity: .9;
      }

      .cls-2 {
        fill: #f8f8f8;
      }
    </style>
  </defs>
  <g id="Layer_1-2" data-name="Layer 1">
    <g class="cls-1">
      <path class="cls-2" d="m74.1,2.5v51.67c0,1.38-1.12,2.5-2.5,2.5s-2.5-1.12-2.5-2.5V8.54L4.27,73.37c-.49.49-1.13.73-1.77.73s-1.28-.24-1.77-.73c-.97-.97-.97-2.56,0-3.53L65.57,5H17.94c-1.38,0-2.5-1.12-2.5-2.5s1.12-2.5,2.5-2.5h53.66c.13,0,.25.01.37.03.13.02.25.04.36.08.32.1.62.26.87.47.05.03.09.07.13.12.16.15.31.33.42.53.06.09.11.19.15.29,0,.03.02.06.03.08.03.06.05.12.06.18.07.23.11.47.11.72Z"/>
    </g>
  </g>
</svg>